<svg xmlns="http://www.w3.org/2000/svg" viewBox="0 0 1024 1024" role="img" aria-labelledby="title desc">
  <title id="title">Sentinel app icon</title>
  <desc id="desc">Sentinel smart-home app icon with protected home and signal arcs.</desc>
  <defs>
    <linearGradient id="appIconBg" x1="96" y1="80" x2="928" y2="944" gradientUnits="userSpaceOnUse">
      <stop offset="0" stop-color="#155eef"/>
      <stop offset="0.5" stop-color="#1fb7ed"/>
      <stop offset="1" stop-color="#18d8bd"/>
    </linearGradient>
    <radialGradient id="appIconGlow" cx="0" cy="0" r="1" gradientUnits="userSpaceOnUse" gradientTransform="translate(702 232) rotate(126) scale(625)">
      <stop offset="0" stop-color="#ffffff" stop-opacity="0.42"/>
      <stop offset="0.42" stop-color="#ffffff" stop-opacity="0.08"/>
      <stop offset="1" stop-color="#ffffff" stop-opacity="0"/>
    </radialGradient>
    <linearGradient id="appIconShield" x1="323" y1="223" x2="718" y2="826" gradientUnits="userSpaceOnUse">
      <stop offset="0" stop-color="#ffffff"/>
      <stop offset="1" stop-color="#ddf8ff"/>
    </linearGradient>
    <filter id="softShadow" x="144" y="154" width="736" height="760" filterUnits="userSpaceOnUse" color-interpolation-filters="sRGB">
      <feDropShadow dx="0" dy="28" stdDeviation="30" flood-color="#0b1724" flood-opacity="0.24"/>
    </filter>
  </defs>
  <rect width="1024" height="1024" rx="224" fill="#101720"/>
  <rect x="64" y="64" width="896" height="896" rx="196" fill="url(#appIconBg)"/>
  <rect x="64" y="64" width="896" height="896" rx="196" fill="url(#appIconGlow)"/>
  <path d="M512 186 774 337v219c0 160-109 283-262 336-153-53-262-176-262-336V337l262-151Z" fill="#0c1723" opacity="0.18" filter="url(#softShadow)"/>
  <path d="M512 151 796 315v239c0 173-119 306-284 362-165-56-284-189-284-362V315l284-164Z" fill="url(#appIconShield)" filter="url(#softShadow)"/>
  <path d="M351 548V423l161-104 161 104v125" fill="none" stroke="#122034" stroke-width="58" stroke-linecap="round" stroke-linejoin="round"/>
  <path d="M404 550h216" fill="none" stroke="#122034" stroke-width="58" stroke-linecap="round"/>
  <path d="M427 666c49 43 121 43 170 0" fill="none" stroke="#155eef" stroke-width="58" stroke-linecap="round"/>
  <path d="M363 596c84 78 214 78 298 0" fill="none" stroke="#20b5e8" stroke-width="58" stroke-linecap="round"/>
  <circle cx="512" cy="510" r="54" fill="#18d8bd"/>
</svg>

